# xmcd
#
# Track frame offsets:
#	180
#	16033
#	29959
#	45295
#	57288
#	71504
#	85511
#	99100
#	111140
#	122113
#	133803
#	144419
#	155160
#	166520
#	177500
#	191609
#	200970
#	211615
#	222681
#	236459
#	251007
#	264808
#
# Disc length: 3664 seconds
#
# Revision: 0
# Processed by: cddbd v1.4PL0 Copyright (c) Steve Scherf et al.
# Submitted via: EasyCDDAExtractor 4.6.0.1
#
DISCID=350e4e16
DTITLE=The Counts
DYEAR=2002
DGENRE=Blues
TTITLE0=Darling Dear
TTITLE1=I Need You Always
TTITLE2=Hot Tamales
TTITLE3=Baby Don't You Know
TTITLE4=My Dear, My Darling
TTITLE5=She Won't Say Yes
TTITLE6=Waiting Around For You
TTITLE7=Baby I Want You
TTITLE8=Let Me Go Lover
TTITLE9=Wailin' Little Mama
TTITLE10=From This Day On
TTITLE11=Love And Understanding
TTITLE12=I Need You Tonight
TTITLE13=Sally Walker
TTITLE14=To Our Love
TTITLE15=Heartbreaker
TTITLE16=I Just Love The Things She Do
TTITLE17=Well Little Baby
TTITLE18=Each Night
TTITLE19=The Other Night
TTITLE20=Sweet Names
TTITLE21=I Guess I Brought It All On Myself
EXTD=
EXTT0=
EXTT1=
EXTT2=
EXTT3=
EXTT4=
EXTT5=
EXTT6=
EXTT7=
EXTT8=
EXTT9=
EXTT10=
EXTT11=
EXTT12=
EXTT13=
EXTT14=
EXTT15=
EXTT16=
EXTT17=
EXTT18=
EXTT19=
EXTT20=
EXTT21=
PLAYORDER=
